<svg width="123" height="64" fill="none" xmlns="http://www.w3.org/2000/svg"><g clip-path="url(#clip0_301_554)" fill="#fff"><path d="M70.667 0L57.936 12.734 45.207 0v26.354l9.737-9.739 3.017 4.899 2.98-4.877 9.715 9.717L70.667 0zM68.69 2.863l-7.856 12.77-2.454-2.455L68.69 2.863zM57.495 13.178l-2.435 2.433L47.198 2.88l10.297 10.3zM45.833 24.843V1.859l8.766 14.207-8.766 8.777zm12.133-4.538l-2.562-4.137 2.537-2.54 2.562 2.562-2.537 4.115zm3.328-4.217l8.747-14.226v22.98l-8.746-8.754zm59.395 22.876a.653.653 0 00-.711-.573h-.712v1.944h.276v-.797h.441a.81.81 0 00.141 0l.301.808h.275l-.331-.885a.547.547 0 00.32-.497zm-1.103.477h-.044v-.951h.441a.478.478 0 010 .951h-.397zM20.957 63.953h-.347v-2.722h.347v1.191h1.63v-1.191h.356v2.725h-.35V62.61h-1.636v1.343zm4.688-1.831c.06-.17.154-.326.276-.458.126-.146.28-.263.455-.345.207-.096.433-.143.662-.138.232-.005.463.042.675.138.179.085.34.204.472.35.12.133.214.288.276.456a1.196 1.196 0 01.05.77 1.531 1.531 0 01-.326.616 1.364 1.364 0 01-.293.252 1.606 1.606 0 01-.38.174c-.16.04-.324.058-.488.052a1.484 1.484 0 01-.662-.138 1.432 1.432 0 01-.455-.35 1.348 1.348 0 01-.276-.455 1.475 1.475 0 01-.082-.466c.007-.157.04-.312.096-.458zm.38.968c.052.144.13.277.232.391.094.11.21.196.342.254a.993.993 0 00.433.094c.15.001.297-.03.433-.094a1.01 1.01 0 00.359-.254c.104-.114.187-.246.242-.391a1.415 1.415 0 000-.999 1.252 1.252 0 00-.242-.391 1.103 1.103 0 00-.792-.348 1.028 1.028 0 00-.775.348c-.1.115-.18.247-.231.391-.11.324-.11.675 0 .999zm5.764.863v-2.51h-1.042v-.212h2.44v.215h-1.042v2.51l-.356-.003zm5.645-2.723v.216H36.03v.976h1.197v.188h-1.205v1.139h1.403v.215h-1.759v-2.733h1.768zm2.528 2.723v-2.722h.356v2.51h1.404v.215l-1.76-.003zm9.122-.386l1.263-2.339h.276v2.725h-.356v-2.206l-1.252 2.242h-.069l-1.202-2.27h-.016v2.223h-.171v-2.711h.275l1.252 2.336zm4.58-.406l-.342.803h-.179l1.153-2.733h.193l1.269 2.725h-.378l-.373-.795h-1.343zm.648-1.486H54.3l-.552 1.313h1.186l-.62-1.313zm6.354-.445v2.759h-.02l-2.159-2.13v2.083h-.179v-2.76h.02l2.159 2.128v-2.08h.179zm3.034 1.931l-.343.803h-.179l1.153-2.725h.193l1.268 2.725h-.378l-.364-.803H63.7zm.65-1.486h-.017l-.551 1.313h1.186l-.618-1.313zm6.458 2.278h-.33v-.16a1.946 1.946 0 01-.893.207 1.654 1.654 0 01-.671-.124 1.288 1.288 0 01-.46-.326 1.4 1.4 0 01-.277-.463 1.671 1.671 0 01-.085-.535 1.379 1.379 0 01.113-.577 1.21 1.21 0 01.314-.433 1.42 1.42 0 01.48-.275c.197-.064.403-.095.61-.094.168-.003.337.02.499.066.125.035.245.088.355.157a.92.92 0 01.348.392h-.276a.4.4 0 00-.102-.16.74.74 0 00-.207-.143 1.376 1.376 0 00-.62-.14 1.195 1.195 0 00-.483.09.935.935 0 00-.353.254 1.033 1.033 0 00-.215.389c-.05.16-.074.326-.072.493-.001.17.024.338.075.5a1.1 1.1 0 00.229.394c.107.113.238.202.383.26.171.063.352.094.535.09.276.007.547-.07.778-.22v-.71h-.442v-.157h.767v1.225zm4.404-2.723v.216h-1.406v.976h1.2v.188h-1.209v1.139h1.407v.215h-1.76v-2.733h1.768zm4.042 2.337l1.266-2.336h.276v2.725h-.356v-2.207h-.014L79.2 63.99h-.058l-1.205-2.27v2.223h-.17v-2.711h.275l1.213 2.336zm6.18-2.337v.216h-1.403v.976h1.205v.188H84.03v1.139h1.404v.215h-1.76v-2.733h1.76zm4.903 0v2.759h-.02l-2.158-2.13h-.017v2.083h-.176v-2.76h.019l2.159 2.128h.028v-2.08h.165zm3.533 2.723v-2.51h-1.043v-.212h2.438v.215h-1.043v2.51l-.352-.003zM31.135 39.188h-2.71l-6.867 14.008-.074.158h1.505l2.157-4.4h8.416l2.206 4.4h2.462l-7.07-14.106-.025-.06zm1.955 8.848h-7.495l3.715-7.574 3.78 7.574zM9.263 51.638l-6.205-12.39-.03-.06H0v14.166h1.484V41.022l6.143 12.27.03.062h2.466l-.074-.15 5.74-11.708v11.858h2.436V39.188h-2.813l-6.15 12.45zm34.703-4.002h6.18v-.919h-6.18v-6.61h6.18v-.92h-8.617v14.167h9.987v-.919h-7.55v-4.8zm24.264-7.53h5.606v13.248h2.438V40.106h5.603v-.918H68.23v.918zm39.457-1.189c-4.516 0-8.19 3.31-8.19 7.354 0 4.043 3.674 7.353 8.19 7.353 4.517 0 8.188-3.31 8.188-7.353 0-4.044-3.673-7.354-8.188-7.354zm0 13.76c-3.118 0-5.752-2.917-5.752-6.37 0-3.454 2.634-6.444 5.752-6.444 3.119 0 5.75 2.952 5.75 6.444 0 3.491-2.634 6.374-5.75 6.374v-.003zm-11.085-9.264c0-2.33-2.675-4.225-5.962-4.225h-5.962v14.166h2.438v-5.718h3.524c.36 0 .72-.025 1.076-.072l2.482 5.792h2.457l-2.758-6.412c1.699-.786 2.705-2.1 2.705-3.53zm-2.382 0c0 1.82-1.608 3.31-3.585 3.31h-3.519v-6.62h3.524c1.972.003 3.58 1.487 3.58 3.31zm-30.598 3.026l.088.044-.471-.251a15.812 15.812 0 00-3.125-.957l-.295-.066c-1.878-.428-3.711-.98-3.711-2.535 0-1.556 1.605-2.805 3.585-2.805s3.584 1.258 3.584 2.805v.108h2.352l-.016-.124c-.276-2.133-2.84-3.74-5.934-3.74-3.287 0-5.962 1.856-5.962 4.137 0 1.227.794 2.388 2.142 3.169l-.077-.039.46.248a15.99 15.99 0 003.136.955l.295.066c1.878.43 3.712.979 3.712 2.537 0 1.559-1.605 2.803-3.585 2.803s-3.585-1.258-3.585-2.803v-.11h-2.801l.016.124c.29 2.132 2.84 3.74 5.934 3.74 5.568 0 6.398-2.59 6.398-4.137 0-1.225-.792-2.386-2.14-3.17z"/><path d="M120.689 38.973a.653.653 0 00-.711-.574h-.712v1.944h.276v-.797h.441a.81.81 0 00.141 0l.301.808h.275l-.331-.885a.548.548 0 00.32-.496zm-1.103.477h-.044v-.952h.441a.478.478 0 010 .952h-.397z"/><path d="M119.978 41.422a2.046 2.046 0 01-1.893-1.265 2.05 2.05 0 011.493-2.794 2.05 2.05 0 11.4 4.059zm0-3.793a1.74 1.74 0 00-1.61 1.076 1.745 1.745 0 001.27 2.377 1.744 1.744 0 002.083-1.71 1.747 1.747 0 00-1.743-1.743z"/></g><defs><clipPath id="clip0_301_554"><path fill="#fff" d="M0 0h122.027v64H0z"/></clipPath></defs></svg>