<svg width="264" height="264" fill="none" xmlns="http://www.w3.org/2000/svg"><path d="M133.032 0h-2.064v26.139h2.064V0zm0 237.852h-2.064V264h2.064v-26.148zM26.148 130.968H0v2.064h26.148v-2.064zm237.852 0h-26.148v2.064H264v-2.064zM39.39 37.926l-1.46 1.459 18.483 18.482 1.46-1.459-18.484-18.482zm168.187 168.2l-1.459 1.459 18.489 18.489 1.459-1.459-18.489-18.489zm-151.164-.007l-18.49 18.49 1.46 1.459 18.49-18.49-1.46-1.459zM224.614 37.932l-18.49 18.49 1.459 1.459 18.49-18.49-1.459-1.459z" fill="#A44E29"/><path d="M133.032 0h-2.064v26.139h2.064V0zm0 237.852h-2.064V264h2.064v-26.148zM26.148 130.968H0v2.064h26.148v-2.064zm237.852 0h-26.148v2.064H264v-2.064zM39.39 37.926l-1.46 1.459 18.483 18.482 1.46-1.459-18.484-18.482zm168.187 168.2l-1.459 1.459 18.489 18.489 1.459-1.459-18.489-18.489zm-151.164-.007l-18.49 18.49 1.46 1.459 18.49-18.49-1.46-1.459zM224.614 37.932l-18.49 18.49 1.459 1.459 18.49-18.49-1.459-1.459zM10.441 80.536l-.79 1.907 24.15 10.002.79-1.906-24.15-10.003zm219.747 91.012l-.79 1.906 24.158 10.007.79-1.907-24.158-10.006zm-139.64 57.863l-10.01 24.155 1.905.79 10.01-24.156-1.905-.789zM181.57 9.653L171.559 33.81l1.906.79 10.011-24.156-1.906-.79zM33.817 171.547L9.661 181.558l.79 1.906 24.156-10.011-.79-1.906zm219.741-91.029l-24.156 10.01.79 1.907 24.156-10.011-.79-1.906zm-80.096 148.893l-1.906.79 10.007 24.157 1.906-.789-10.007-24.158zM82.444 9.65l-1.907.79 10.007 24.158 1.906-.79L82.444 9.65z" fill="#A44E29"/><path d="M10.441 80.536l-.79 1.907 24.15 10.002.79-1.906-24.15-10.003zm219.747 91.012l-.79 1.906 24.158 10.007.79-1.907-24.158-10.006zm-139.64 57.863l-10.01 24.155 1.905.79 10.01-24.156-1.905-.789zM181.57 9.653L171.559 33.81l1.906.79 10.011-24.156-1.906-.79zM33.817 171.547L9.661 181.558l.79 1.906 24.156-10.011-.79-1.906zm219.741-91.029l-24.156 10.01.79 1.907 24.156-10.011-.79-1.906zm-80.096 148.893l-1.906.79 10.007 24.157 1.906-.789-10.007-24.158zM82.444 9.65l-1.907.79 10.007 24.158 1.906-.79L82.444 9.65zm24.819-7.312l-2.024.403 5.101 25.645 2.024-.402-5.101-25.646zm46.389 233.293l-2.024.403 5.102 25.645 2.023-.402-5.101-25.646zM27.984 151.63L2.34 156.74l.403 2.024 25.644-5.11-.403-2.024zm233.271-46.416l-25.635 5.108.404 2.023 25.634-5.108-.403-2.023zM22.895 58.092l-1.155 1.712 21.703 14.643 1.155-1.713-21.703-14.642zM241.18 206.189l-21.736-14.519 1.141-1.721 21.746 14.529-1.151 1.711zM72.33 219.44l-14.51 21.741 1.716 1.145 14.51-21.741-1.716-1.145zM191.67 44.556l-1.721-1.14 14.529-21.746 1.721 1.15-14.529 21.736z" fill="#A44E29"/><path d="M107.263 2.338l-2.024.403 5.101 25.645 2.024-.402-5.101-25.646zm46.389 233.293l-2.024.403 5.102 25.645 2.023-.402-5.101-25.646zM27.984 151.63L2.34 156.74l.403 2.024 25.644-5.11-.403-2.024zm233.271-46.416l-25.635 5.108.404 2.023 25.634-5.108-.403-2.023zM22.895 58.092l-1.155 1.712 21.703 14.643 1.155-1.713-21.703-14.642zM241.18 206.189l-21.736-14.519 1.141-1.721 21.746 14.529-1.151 1.711zM72.33 219.44l-14.51 21.741 1.716 1.145 14.51-21.741-1.716-1.145zM191.67 44.556l-1.721-1.14 14.529-21.746 1.721 1.15-14.529 21.736zM2.747 105.232l-.403 2.024 25.637 5.099.402-2.024-25.636-5.099zm233.265 46.405l-.403 2.024 25.646 5.101.402-2.024-25.645-5.101zm-125.67 84.003l-5.11 25.644 2.023.404 5.11-25.644-2.023-.404zm46.42-233.303l-5.11 25.644 2.023.403 5.11-25.644-2.023-.403zM43.423 189.942l-21.744 14.523 1.146 1.716 21.744-14.523-1.146-1.716zM220.585 74.051l-1.141-1.72 21.736-14.52 1.151 1.711-21.746 14.53zM204.478 242.33l-14.529-21.736 1.721-1.15 14.529 21.736-1.721 1.15zM59.526 21.674L57.81 22.82l14.527 21.74 1.716-1.146-14.527-21.741z" fill="#A44E29"/><path d="M2.747 105.232l-.403 2.024 25.637 5.099.402-2.024-25.636-5.099zm233.265 46.405l-.403 2.024 25.646 5.101.402-2.024-25.645-5.101zm-125.67 84.003l-5.11 25.644 2.023.404 5.11-25.644-2.023-.404zm46.42-233.303l-5.11 25.644 2.023.403 5.11-25.644-2.023-.403zM43.423 189.942l-21.744 14.523 1.146 1.716 21.744-14.523-1.146-1.716zM220.585 74.051l-1.141-1.72 21.736-14.52 1.151 1.711-21.746 14.53zM204.478 242.33l-14.529-21.736 1.721-1.15 14.529 21.736-1.721 1.15zM59.526 21.674L57.81 22.82l14.527 21.74 1.716-1.146-14.527-21.741zM120.086.538l-2.053.202 2.56 26.023 2.054-.202L120.086.538zm23.327 236.694l-2.054.202 2.566 26.022 2.053-.202-2.565-26.022zM26.56 141.353L.537 143.905l.201 2.054 26.023-2.552-.2-2.054zm236.71-23.32l-26.023 2.552.201 2.053 26.024-2.552-.202-2.053zM30.615 47.462l-1.309 1.595L49.52 65.643l1.31-1.595-20.215-16.586zm183.874 150.89l-1.309 1.595 20.215 16.587 1.308-1.595-20.214-16.587zM64.037 213.184l-16.59 20.212 1.595 1.309 16.59-20.212-1.595-1.309zM214.956 29.308l-16.59 20.211 1.595 1.31 16.59-20.212-1.595-1.31z" fill="#A44E29"/><path d="M120.086.538l-2.053.202 2.56 26.023 2.054-.202L120.086.538zm23.327 236.694l-2.054.202 2.566 26.022 2.053-.202-2.565-26.022zM26.56 141.353L.537 143.905l.201 2.054 26.023-2.552-.2-2.054zm236.71-23.32l-26.023 2.552.201 2.053 26.024-2.552-.202-2.053zM30.615 47.462l-1.309 1.595L49.52 65.643l1.31-1.595-20.215-16.586zm183.874 150.89l-1.309 1.595 20.215 16.587 1.308-1.595-20.214-16.587zM64.037 213.184l-16.59 20.212 1.595 1.309 16.59-20.212-1.595-1.309zM214.956 29.308l-16.59 20.211 1.595 1.31 16.59-20.212-1.595-1.31zM6.24 92.614l-.598 1.98 25.102 7.583.599-1.981L6.24 92.614zm227.344 69.111l-.599 1.975 25.023 7.588.598-1.975-25.022-7.588zM100.293 232.98l-7.606 25.017 1.975.6 7.605-25.017-1.974-.6zm69.043-227.6l-7.605 25.017 1.974.6 7.605-25.018-1.974-.6zM38.175 180.982l-23.061 12.324.972 1.82 23.062-12.324-.973-1.82zm187.668-97.974l-.97-1.816 23.058-12.332.97 1.825-23.058 12.323zm-32.528 165.893l-12.323-23.058 1.816-.97 12.323 23.058-1.816.97zM70.691 15.102l-1.82.973 12.324 23.061 1.82-.972-12.324-23.062z" fill="#A44E29"/><path d="M6.24 92.614l-.598 1.98 25.102 7.583.599-1.981L6.24 92.614zm227.344 69.111l-.599 1.975 25.023 7.588.598-1.975-25.022-7.588zM100.293 232.98l-7.606 25.017 1.975.6 7.605-25.017-1.974-.6zm69.043-227.6l-7.605 25.017 1.974.6 7.605-25.018-1.974-.6zM38.175 180.982l-23.061 12.324.972 1.82 23.062-12.324-.973-1.82zm187.668-97.974l-.97-1.816 23.058-12.332.97 1.825-23.058 12.323zm-32.528 165.893l-12.323-23.058 1.816-.97 12.323 23.058-1.816.97zM70.691 15.102l-1.82.973 12.324 23.061 1.82-.972-12.324-23.062zm23.976-9.715l-1.975.6 7.593 25.02 1.974-.599-7.592-25.02zm69.038 227.632l-1.975.599 7.588 25.023 1.975-.599-7.588-25.023zM30.414 161.747L5.39 169.33l.599 1.975 25.024-7.584-.599-1.974zm227.606-69.05l-25.018 7.605.601 1.974 25.017-7.605-.6-1.974zM16.075 68.867l-.972 1.82L38.164 83.01l.973-1.82-23.062-12.324zM247.931 195.14l-23.058-12.332.97-1.816 23.058 12.323-.97 1.825zM81.186 224.848l-12.312 23.068 1.82.972 12.312-23.068-1.82-.972zM193.318 15.1l-12.304 23.072 1.821.97 12.304-23.072-1.821-.97z" fill="#A44E29"/><path d="M94.667 5.387l-1.975.6 7.593 25.02 1.974-.599-7.592-25.02zm69.038 227.632l-1.975.599 7.588 25.023 1.975-.599-7.588-25.023zM30.414 161.747L5.39 169.33l.599 1.975 25.024-7.584-.599-1.974zm227.606-69.05l-25.018 7.605.601 1.974 25.017-7.605-.6-1.974zM16.075 68.867l-.972 1.82L38.164 83.01l.973-1.82-23.062-12.324zM247.931 195.14l-23.058-12.332.97-1.816 23.058 12.323-.97 1.825zM81.186 224.848l-12.312 23.068 1.82.972 12.312-23.068-1.82-.972zM193.318 15.1l-12.304 23.072 1.821.97 12.304-23.072-1.821-.97zM.74 118.03l-.202 2.053 26.023 2.561.202-2.053L.74 118.03zm236.717 23.33l-.203 2.053 26.022 2.566.202-2.054-26.021-2.565zm-116.87 95.881l-2.552 26.023 2.053.201 2.552-26.023-2.053-.201zM143.902.524l-2.552 26.023 2.054.201L145.955.725l-2.053-.201zM49.525 198.346l-20.211 16.589 1.309 1.595 20.211-16.59-1.309-1.594zM233.376 47.444l-20.211 16.59 1.309 1.595 20.211-16.59-1.309-1.595zm-33.419 165.704l-1.594 1.309 16.589 20.211 1.595-1.309-16.59-20.211zM49.056 29.306l-1.595 1.31 16.59 20.21 1.595-1.309-16.59-20.211z" fill="#A44E29"/><path d="M.74 118.03l-.202 2.053 26.023 2.561.202-2.053L.74 118.03zm236.717 23.33l-.203 2.053 26.022 2.566.202-2.054-26.021-2.565zm-116.87 95.881l-2.552 26.023 2.053.201 2.552-26.023-2.053-.201zM143.902.524l-2.552 26.023 2.054.201L145.955.725l-2.053-.201zM49.525 198.346l-20.211 16.589 1.309 1.595 20.211-16.59-1.309-1.594zM233.376 47.444l-20.211 16.59 1.309 1.595 20.211-16.59-1.309-1.595zm-33.419 165.704l-1.594 1.309 16.589 20.211 1.595-1.309-16.59-20.211zM49.056 29.306l-1.595 1.31 16.59 20.21 1.595-1.309-16.59-20.211z" fill="#A44E29"/></svg>