<?xml version="1.0" encoding="utf-8"?><svg viewBox="0 0 264 264" xmlns="http://www.w3.org/2000/svg" xmlns:xlink="http://www.w3.org/1999/xlink"><style>:root>svg{display:none}:root>svg:target{display:block}</style><svg viewBox="0 0 30 30" id="burger" xmlns="http://www.w3.org/2000/svg"><path d="M4 8c0-.552.43-1 .96-1h22.08c.53 0 .96.448.96 1s-.43 1-.96 1H4.96C4.43 9 4 8.552 4 8zM4 15c0-.552.43-1 .96-1h22.08c.53 0 .96.448.96 1s-.43 1-.96 1H4.96c-.53 0-.96-.448-.96-1zM4 22c0-.552.43-1 .96-1h22.08c.53 0 .96.448.96 1s-.43 1-.96 1H4.96c-.53 0-.96-.448-.96-1z"/></svg><svg viewBox="0 0 264 264" id="circle" xmlns="http://www.w3.org/2000/svg"><path d="M133.032 0h-2.064v26.139h2.064V0zM133.032 237.852h-2.064V264h2.064v-26.148zM26.148 130.968H0v2.064h26.148v-2.064zM264 130.968h-26.148v2.064H264v-2.064zM39.39 37.926l-1.46 1.459 18.483 18.482 1.46-1.459-18.484-18.482zM207.577 206.126l-1.459 1.459 18.489 18.489 1.459-1.459-18.489-18.489zM56.413 206.119l-18.49 18.49 1.46 1.459 18.49-18.49-1.46-1.459zM224.614 37.932l-18.49 18.49 1.459 1.459 18.49-18.49-1.459-1.459z"/><path d="M133.032 0h-2.064v26.139h2.064V0zM133.032 237.852h-2.064V264h2.064v-26.148zM26.148 130.968H0v2.064h26.148v-2.064zM264 130.968h-26.148v2.064H264v-2.064zM39.39 37.926l-1.46 1.459 18.483 18.482 1.46-1.459-18.484-18.482zM207.577 206.126l-1.459 1.459 18.489 18.489 1.459-1.459-18.489-18.489zM56.413 206.119l-18.49 18.49 1.46 1.459 18.49-18.49-1.46-1.459zM224.614 37.932l-18.49 18.49 1.459 1.459 18.49-18.49-1.459-1.459zM10.441 80.536l-.79 1.907 24.15 10.002.79-1.906-24.15-10.003zM230.188 171.548l-.79 1.906 24.158 10.007.79-1.907-24.158-10.006zM90.548 229.411l-10.01 24.155 1.905.79 10.01-24.156-1.905-.789zM181.57 9.653L171.559 33.81l1.906.79 10.011-24.156-1.906-.79zM33.817 171.547L9.661 181.558l.79 1.906 24.156-10.011-.79-1.906zM253.558 80.518l-24.156 10.01.79 1.907 24.156-10.011-.79-1.906zM173.462 229.411l-1.906.79 10.007 24.157 1.906-.789-10.007-24.158zM82.444 9.65l-1.907.79 10.007 24.158 1.906-.79L82.444 9.65z"/><path d="M10.441 80.536l-.79 1.907 24.15 10.002.79-1.906-24.15-10.003zM230.188 171.548l-.79 1.906 24.158 10.007.79-1.907-24.158-10.006zM90.548 229.411l-10.01 24.155 1.905.79 10.01-24.156-1.905-.789zM181.57 9.653L171.559 33.81l1.906.79 10.011-24.156-1.906-.79zM33.817 171.547L9.661 181.558l.79 1.906 24.156-10.011-.79-1.906zM253.558 80.518l-24.156 10.01.79 1.907 24.156-10.011-.79-1.906zM173.462 229.411l-1.906.79 10.007 24.157 1.906-.789-10.007-24.158zM82.444 9.65l-1.907.79 10.007 24.158 1.906-.79L82.444 9.65zM107.263 2.338l-2.024.403 5.101 25.645 2.024-.402-5.101-25.646zM153.652 235.631l-2.024.403 5.102 25.645 2.023-.402-5.101-25.646zM27.984 151.63L2.34 156.74l.403 2.024 25.644-5.11-.403-2.024zM261.255 105.214l-25.635 5.108.404 2.023 25.634-5.108-.403-2.023zM22.895 58.092l-1.155 1.712 21.703 14.643 1.155-1.713-21.703-14.642zM241.18 206.189l-21.736-14.519 1.141-1.721 21.746 14.529-1.151 1.711zM72.33 219.44l-14.51 21.741 1.716 1.145 14.51-21.741-1.716-1.145zM191.67 44.556l-1.721-1.14 14.529-21.746 1.721 1.15-14.529 21.736z"/><path d="M107.263 2.338l-2.024.403 5.101 25.645 2.024-.402-5.101-25.646zM153.652 235.631l-2.024.403 5.102 25.645 2.023-.402-5.101-25.646zM27.984 151.63L2.34 156.74l.403 2.024 25.644-5.11-.403-2.024zM261.255 105.214l-25.635 5.108.404 2.023 25.634-5.108-.403-2.023zM22.895 58.092l-1.155 1.712 21.703 14.643 1.155-1.713-21.703-14.642zM241.18 206.189l-21.736-14.519 1.141-1.721 21.746 14.529-1.151 1.711zM72.33 219.44l-14.51 21.741 1.716 1.145 14.51-21.741-1.716-1.145zM191.67 44.556l-1.721-1.14 14.529-21.746 1.721 1.15-14.529 21.736zM2.747 105.232l-.403 2.024 25.637 5.099.402-2.024-25.636-5.099zM236.012 151.637l-.403 2.024 25.646 5.101.402-2.024-25.645-5.101zM110.342 235.64l-5.11 25.644 2.023.404 5.11-25.644-2.023-.404zM156.762 2.337l-5.11 25.644 2.023.403 5.11-25.644-2.023-.403zM43.423 189.942l-21.744 14.523 1.146 1.716 21.744-14.523-1.146-1.716zM220.585 74.051l-1.141-1.72 21.736-14.52 1.151 1.711-21.746 14.53zM204.478 242.33l-14.529-21.736 1.721-1.15 14.529 21.736-1.721 1.15zM59.526 21.674L57.81 22.82 72.337 44.56l1.716-1.146-14.527-21.741z"/><path d="M2.747 105.232l-.403 2.024 25.637 5.099.402-2.024-25.636-5.099zM236.012 151.637l-.403 2.024 25.646 5.101.402-2.024-25.645-5.101zM110.342 235.64l-5.11 25.644 2.023.404 5.11-25.644-2.023-.404zM156.762 2.337l-5.11 25.644 2.023.403 5.11-25.644-2.023-.403zM43.423 189.942l-21.744 14.523 1.146 1.716 21.744-14.523-1.146-1.716zM220.585 74.051l-1.141-1.72 21.736-14.52 1.151 1.711-21.746 14.53zM204.478 242.33l-14.529-21.736 1.721-1.15 14.529 21.736-1.721 1.15zM59.526 21.674L57.81 22.82 72.337 44.56l1.716-1.146-14.527-21.741zM120.086.538l-2.053.202 2.56 26.023 2.054-.202L120.086.538zM143.413 237.232l-2.054.202 2.566 26.022 2.053-.202-2.565-26.022zM26.56 141.353L.537 143.905l.201 2.054 26.023-2.552-.2-2.054zM263.27 118.033l-26.023 2.552.201 2.053 26.024-2.552-.202-2.053zM30.615 47.462l-1.309 1.595L49.52 65.643l1.31-1.595-20.215-16.586zM214.489 198.352l-1.309 1.595 20.215 16.587 1.308-1.595-20.214-16.587zM64.037 213.184l-16.59 20.212 1.595 1.309 16.59-20.212-1.595-1.309zM214.956 29.308l-16.59 20.211 1.595 1.31 16.59-20.212-1.595-1.31z"/><path d="M120.086.538l-2.053.202 2.56 26.023 2.054-.202L120.086.538zM143.413 237.232l-2.054.202 2.566 26.022 2.053-.202-2.565-26.022zM26.56 141.353L.537 143.905l.201 2.054 26.023-2.552-.2-2.054zM263.27 118.033l-26.023 2.552.201 2.053 26.024-2.552-.202-2.053zM30.615 47.462l-1.309 1.595L49.52 65.643l1.31-1.595-20.215-16.586zM214.489 198.352l-1.309 1.595 20.215 16.587 1.308-1.595-20.214-16.587zM64.037 213.184l-16.59 20.212 1.595 1.309 16.59-20.212-1.595-1.309zM214.956 29.308l-16.59 20.211 1.595 1.31 16.59-20.212-1.595-1.31zM6.24 92.614l-.598 1.98 25.102 7.583.599-1.981L6.24 92.614zM233.584 161.725l-.599 1.975 25.023 7.588.598-1.975-25.022-7.588zM100.293 232.98l-7.606 25.017 1.975.6 7.605-25.017-1.974-.6zM169.336 5.38l-7.605 25.017 1.974.6 7.605-25.018-1.974-.6zM38.175 180.982l-23.061 12.324.972 1.82 23.062-12.324-.973-1.82zM225.843 83.008l-.97-1.816 23.058-12.332.97 1.825-23.058 12.323zM193.315 248.901l-12.323-23.058 1.816-.97 12.323 23.058-1.816.97zM70.691 15.102l-1.82.973 12.324 23.061 1.82-.972-12.324-23.062z"/><path d="M6.24 92.614l-.598 1.98 25.102 7.583.599-1.981L6.24 92.614zM233.584 161.725l-.599 1.975 25.023 7.588.598-1.975-25.022-7.588zM100.293 232.98l-7.606 25.017 1.975.6 7.605-25.017-1.974-.6zM169.336 5.38l-7.605 25.017 1.974.6 7.605-25.018-1.974-.6zM38.175 180.982l-23.061 12.324.972 1.82 23.062-12.324-.973-1.82zM225.843 83.008l-.97-1.816 23.058-12.332.97 1.825-23.058 12.323zM193.315 248.901l-12.323-23.058 1.816-.97 12.323 23.058-1.816.97zM70.691 15.102l-1.82.973 12.324 23.061 1.82-.972-12.324-23.062zM94.667 5.387l-1.975.6 7.593 25.02 1.974-.599-7.592-25.02zM163.705 233.019l-1.975.599 7.588 25.023 1.975-.599-7.588-25.023zM30.414 161.747L5.39 169.33l.599 1.975 25.024-7.584-.599-1.974zM258.02 92.697l-25.018 7.605.601 1.974 25.017-7.605-.6-1.974zM16.075 68.867l-.972 1.82L38.164 83.01l.973-1.82-23.062-12.324zM247.931 195.14l-23.058-12.332.97-1.816 23.058 12.323-.97 1.825zM81.186 224.848l-12.312 23.068 1.82.972 12.312-23.068-1.82-.972zM193.318 15.1l-12.304 23.072 1.821.97 12.304-23.072-1.821-.97z"/><path d="M94.667 5.387l-1.975.6 7.593 25.02 1.974-.599-7.592-25.02zM163.705 233.019l-1.975.599 7.588 25.023 1.975-.599-7.588-25.023zM30.414 161.747L5.39 169.33l.599 1.975 25.024-7.584-.599-1.974zM258.02 92.697l-25.018 7.605.601 1.974 25.017-7.605-.6-1.974zM16.075 68.867l-.972 1.82L38.164 83.01l.973-1.82-23.062-12.324zM247.931 195.14l-23.058-12.332.97-1.816 23.058 12.323-.97 1.825zM81.186 224.848l-12.312 23.068 1.82.972 12.312-23.068-1.82-.972zM193.318 15.1l-12.304 23.072 1.821.97 12.304-23.072-1.821-.97zM.74 118.03l-.202 2.053 26.023 2.561.202-2.053L.74 118.03zM237.457 141.36l-.203 2.053 26.022 2.566.202-2.054-26.021-2.565zM120.587 237.241l-2.552 26.023 2.053.201 2.552-26.023-2.053-.201zM143.902.524l-2.552 26.023 2.054.201L145.955.725l-2.053-.201zM49.525 198.346l-20.211 16.589 1.309 1.595 20.211-16.59-1.309-1.594zM233.376 47.444l-20.211 16.59 1.309 1.595 20.211-16.59-1.309-1.595zM199.957 213.148l-1.594 1.309 16.589 20.211 1.595-1.309-16.59-20.211zM49.056 29.306l-1.595 1.31 16.59 20.21 1.595-1.309-16.59-20.211z"/><path d="M.74 118.03l-.202 2.053 26.023 2.561.202-2.053L.74 118.03zM237.457 141.36l-.203 2.053 26.022 2.566.202-2.054-26.021-2.565zM120.587 237.241l-2.552 26.023 2.053.201 2.552-26.023-2.053-.201zM143.902.524l-2.552 26.023 2.054.201L145.955.725l-2.053-.201zM49.525 198.346l-20.211 16.589 1.309 1.595 20.211-16.59-1.309-1.594zM233.376 47.444l-20.211 16.59 1.309 1.595 20.211-16.59-1.309-1.595zM199.957 213.148l-1.594 1.309 16.589 20.211 1.595-1.309-16.59-20.211zM49.056 29.306l-1.595 1.31 16.59 20.21 1.595-1.309-16.59-20.211z"/></svg><svg viewBox="0 0 30 30" id="close" xmlns="http://www.w3.org/2000/svg"><path d="M5.74 5.74c.41-.408 1.073-.408 1.482 0L24.26 22.779a1.048 1.048 0 01-1.482 1.482L5.742 7.221a1.048 1.048 0 010-1.481z"/><path d="M5.74 24.26a1.048 1.048 0 010-1.482L22.779 5.74a1.048 1.048 0 011.482 1.481L7.221 24.26c-.409.41-1.072.41-1.481 0z"/></svg><svg viewBox="0 0 20 20" id="corner-down-right" xmlns="http://www.w3.org/2000/svg"><path d="M14.292 11.167A1.667 1.667 0 0015.958 9.5V2.833h1.667V9.5a3.333 3.333 0 01-3.333 3.333H5.703l3.154 3.155-1.179 1.178-5.303-5.303 5.303-5.304 1.18 1.18-3.43 3.428h8.864z"/></svg><svg viewBox="0 0 123 64" id="logo" xmlns="http://www.w3.org/2000/svg"><g clip-path="url(#eclip0_356_554)"><path d="M70.667 0L57.936 12.734 45.207 0v26.354l9.737-9.739 3.017 4.899 2.98-4.877 9.715 9.717L70.667 0zM68.69 2.863l-7.856 12.77-2.454-2.455L68.69 2.863zM57.495 13.178l-2.435 2.433L47.198 2.88l10.297 10.3zM45.833 24.843V1.859l8.766 14.207-8.766 8.777zm12.133-4.538l-2.562-4.137 2.537-2.54 2.562 2.562-2.537 4.115zm3.328-4.217l8.747-14.226v22.98l-8.746-8.754zM120.689 38.964a.653.653 0 00-.711-.573h-.712v1.944h.276v-.797h.441a.81.81 0 00.141 0l.301.808h.275l-.331-.885a.547.547 0 00.32-.497zm-1.103.477h-.044v-.951h.441a.478.478 0 010 .951h-.397zM20.957 63.953h-.347v-2.722h.347v1.191h1.63v-1.191h.356v2.725h-.35V62.61h-1.636v1.343zM25.645 62.122c.06-.17.154-.326.276-.458.126-.146.28-.263.455-.345.207-.096.433-.143.662-.138.232-.005.463.042.675.138.179.085.34.204.472.35.12.133.214.288.276.456a1.196 1.196 0 01.05.77c-.029.11-.07.216-.122.316-.056.108-.124.21-.204.3a1.364 1.364 0 01-.293.252 1.606 1.606 0 01-.38.174c-.16.04-.324.058-.488.052a1.484 1.484 0 01-.662-.138 1.432 1.432 0 01-.455-.35 1.348 1.348 0 01-.276-.455 1.475 1.475 0 01-.082-.466c.007-.157.04-.312.096-.458zm.38.968c.052.144.13.277.232.391.094.11.21.196.342.254a.993.993 0 00.433.094c.15.001.297-.03.433-.094.137-.057.259-.144.359-.254.104-.114.187-.246.242-.391a1.415 1.415 0 000-.999 1.252 1.252 0 00-.242-.391 1.103 1.103 0 00-.792-.348 1.028 1.028 0 00-.775.348c-.1.115-.18.247-.231.391-.11.324-.11.675 0 .999zM31.789 63.953v-2.51h-1.042v-.212h2.44v.215h-1.042v2.51l-.356-.003zM37.434 61.23v.216H36.03v.976h1.197v.188h-1.205v1.139h1.403v.215h-1.759v-2.733h1.768zM39.962 63.953v-2.722h.356v2.51h1.404v.215l-1.76-.003zM49.084 63.567l1.263-2.339h.276v2.725h-.356v-2.206l-1.252 2.242h-.069l-1.202-2.27h-.016v2.223h-.171v-2.711h.275l1.252 2.336zM53.664 63.161l-.342.803h-.179l1.153-2.733h.193l1.269 2.725h-.378l-.373-.795h-1.343zm.648-1.486H54.3l-.552 1.313h1.186l-.62-1.313zM60.666 61.23v2.759h-.02l-2.159-2.13v2.083h-.179v-2.76h.02l2.159 2.128v-2.08h.179zM63.7 63.161l-.343.803h-.179l1.153-2.725h.193l1.268 2.725h-.378l-.364-.803H63.7zm.65-1.486h-.017l-.551 1.313h1.186l-.618-1.313zM70.808 63.953h-.33v-.16a1.946 1.946 0 01-.893.207 1.654 1.654 0 01-.671-.124 1.288 1.288 0 01-.46-.326 1.4 1.4 0 01-.277-.463 1.671 1.671 0 01-.085-.535 1.379 1.379 0 01.113-.577 1.21 1.21 0 01.314-.433 1.42 1.42 0 01.48-.275c.197-.064.403-.095.61-.094.168-.003.337.02.499.066.125.035.245.088.355.157a.92.92 0 01.348.392h-.276a.4.4 0 00-.102-.16.74.74 0 00-.207-.143 1.376 1.376 0 00-.62-.14 1.195 1.195 0 00-.483.09.935.935 0 00-.353.254c-.099.112-.172.245-.215.389-.05.16-.074.326-.072.493-.001.17.024.338.075.5.048.146.126.28.229.394.107.113.238.202.383.26.171.063.352.094.535.09.276.007.547-.07.778-.22v-.71h-.442v-.157h.767v1.225zM75.212 61.23v.216h-1.406v.976h1.2v.188h-1.209v1.139h1.407v.215h-1.76v-2.733h1.768zM79.254 63.567l1.266-2.336h.276v2.725h-.356v-2.207h-.014L79.2 63.99h-.058l-1.205-2.27v2.223h-.17v-2.711h.275l1.213 2.336zM85.434 61.23v.216h-1.403v.976h1.205v.188H84.03v1.139h1.404v.215h-1.76v-2.733h1.76zM90.337 61.23v2.759h-.02l-2.158-2.13h-.017v2.083h-.176v-2.76h.019l2.159 2.128h.028v-2.08h.165zM93.87 63.953v-2.51h-1.043v-.212h2.438v.215h-1.043v2.51l-.352-.003zM31.135 39.188h-2.71l-6.867 14.008-.074.158h1.505l2.157-4.4h8.416l2.206 4.4h2.462l-7.07-14.106-.025-.06zm1.955 8.848h-7.495l3.715-7.574 3.78 7.574zM9.263 51.638l-6.205-12.39-.03-.06H0v14.166h1.484V41.022l6.143 12.27.03.062h2.466l-.074-.15 5.74-11.708v11.858h2.436V39.188h-2.813l-6.15 12.45zM43.966 47.636h6.18v-.919h-6.18v-6.61h6.18v-.92h-8.617v14.167h9.987v-.919h-7.55v-4.8zM68.23 40.106h5.606v13.248h2.438V40.106h5.603v-.918H68.23v.918zM107.687 38.917c-4.516 0-8.19 3.31-8.19 7.354 0 4.043 3.674 7.353 8.19 7.353 4.517 0 8.188-3.31 8.188-7.353 0-4.044-3.673-7.354-8.188-7.354zm0 13.76c-3.118 0-5.752-2.917-5.752-6.37 0-3.454 2.634-6.444 5.752-6.444 3.119 0 5.75 2.952 5.75 6.444 0 3.491-2.634 6.374-5.75 6.374v-.003zM96.602 43.413c0-2.33-2.675-4.225-5.962-4.225h-5.962v14.166h2.438v-5.718h3.524c.36 0 .72-.025 1.076-.072l2.482 5.792h2.457l-2.758-6.412c1.699-.786 2.705-2.1 2.705-3.53zm-2.382 0c0 1.82-1.608 3.31-3.585 3.31h-3.519v-6.62h3.524c1.972.003 3.58 1.487 3.58 3.31zM63.622 46.439l.088.044-.471-.251a15.812 15.812 0 00-3.125-.957l-.295-.066c-1.878-.428-3.711-.98-3.711-2.535 0-1.556 1.605-2.805 3.585-2.805s3.584 1.258 3.584 2.805v.108h2.352l-.016-.124c-.276-2.133-2.84-3.74-5.934-3.74-3.287 0-5.962 1.856-5.962 4.137 0 1.227.794 2.388 2.142 3.169l-.077-.039.46.248c1.01.425 2.061.745 3.136.955l.295.066c1.878.43 3.712.979 3.712 2.537 0 1.559-1.605 2.803-3.585 2.803s-3.585-1.258-3.585-2.803v-.11h-2.801l.016.124c.29 2.132 2.84 3.74 5.934 3.74 5.568 0 6.398-2.59 6.398-4.137 0-1.225-.792-2.386-2.14-3.17z"/><path d="M120.689 38.973a.653.653 0 00-.711-.574h-.712v1.944h.276v-.797h.441a.81.81 0 00.141 0l.301.808h.275l-.331-.885a.548.548 0 00.32-.496zm-1.103.477h-.044v-.952h.441a.478.478 0 010 .952h-.397z"/><path d="M119.978 41.422a2.046 2.046 0 01-1.893-1.265 2.05 2.05 0 011.493-2.794 2.05 2.05 0 11.4 4.059zm0-3.793a1.74 1.74 0 00-1.61 1.076 1.745 1.745 0 001.27 2.377 1.744 1.744 0 002.083-1.71 1.747 1.747 0 00-1.743-1.743z"/></g><defs><clipPath id="eclip0_356_554"><path d="M0 0h122.027v64H0z"/></clipPath></defs></svg></svg>